<svg width="142" height="130" viewBox="0 0 142 130" fill="none" xmlns="http://www.w3.org/2000/svg">
<path d="M130.045 11.9696C131.686 11.7344 132.824 10.2142 132.589 8.57408C132.354 6.93401 130.834 5.79516 129.194 6.03039L130.045 11.9696ZM25.0156 129.535C26.4158 130.421 28.269 130.004 29.1548 128.604L43.5901 105.787C44.476 104.387 44.059 102.533 42.6588 101.648C41.2586 100.762 39.4055 101.179 38.5197 102.579L25.6883 122.861L5.40637 110.029C4.00619 109.144 2.15303 109.561 1.2672 110.961C0.381382 112.361 0.798344 114.214 2.19852 115.1L25.0156 129.535ZM129.194 6.03039C107.922 9.08127 77.0972 18.7302 53.7751 37.9341C30.2743 57.2851 14.4058 86.3831 23.6927 127.659L29.5464 126.341C20.8334 87.6169 35.5481 60.7149 57.589 42.5659C79.8086 24.2698 109.484 14.9187 130.045 11.9696L129.194 6.03039Z" fill="#5781FF"/>
<circle cx="134" cy="8" r="8" fill="#5781FF"/>
</svg>
