<svg width="50" height="50" viewBox="0 0 50 50" fill="none" xmlns="http://www.w3.org/2000/svg">
<g clip-path="url(#clip0_1193_20860)">
<path d="M25 50C38.8071 50 50 38.8071 50 25C50 11.1929 38.8071 0 25 0C11.1929 0 0 11.1929 0 25C0 38.8071 11.1929 50 25 50Z" fill="#FEDA2C"/>
<path d="M25.0004 44.2704C35.644 44.2704 44.2724 35.6421 44.2724 24.9985C44.2724 14.3549 35.644 5.72656 25.0004 5.72656C14.3569 5.72656 5.72852 14.3549 5.72852 24.9985C5.72852 35.6421 14.3569 44.2704 25.0004 44.2704Z" fill="#FCAA17"/>
<path fill-rule="evenodd" clip-rule="evenodd" d="M32.6645 18.7058C33.3752 18.7058 34.0113 18.8874 34.4771 19.3531C34.9423 19.8184 35.2539 20.5845 35.2539 21.2952C35.2539 22.0059 34.9423 22.6421 34.4771 23.1078C34.0113 23.5736 33.3752 23.7552 32.6645 23.7552C31.2436 23.7552 30.0751 22.7167 30.0751 21.2952C30.0751 19.9906 29.5817 18.7068 28.7804 17.7995C28.746 17.7604 28.7324 17.7164 28.719 17.6728C28.7045 17.6261 28.6902 17.5799 28.6509 17.5405C27.7199 16.609 26.4472 16.1164 25.0257 16.1164C23.6042 16.1164 22.202 16.609 21.271 17.5405C20.3395 18.4721 19.8468 19.8743 19.8468 21.2952C19.8468 22.833 20.461 24.1076 21.53 25.0499C22.4368 25.8512 23.7205 26.3446 25.0257 26.3446C25.7364 26.3446 26.3725 26.6557 26.8383 27.1214C27.3035 27.5867 27.4857 28.2233 27.4857 28.934C27.4857 29.6448 27.3035 30.2809 26.8383 30.7466C26.3725 31.2124 25.7364 31.5234 25.0257 31.5234C23.6048 31.5234 22.4363 30.3555 22.4363 28.934C22.4363 27.6294 21.9429 26.4751 21.1416 25.5678C21.0932 25.5128 21.0261 25.448 20.9641 25.3883C20.935 25.3602 20.907 25.3332 20.8826 25.3088C19.9516 24.3773 18.6784 23.7552 17.2574 23.7552C15.8365 23.7552 14.668 22.7167 14.668 21.2952C14.668 20.5845 14.9791 19.8184 15.4448 19.3531C15.9106 18.8874 16.5472 18.7058 17.2574 18.7058C18.6789 18.7058 19.9516 18.0836 20.8826 17.1521C21.8141 16.2206 22.4363 14.9479 22.4363 13.5269C22.4363 12.8162 22.6179 12.1796 23.0836 11.7143C23.5494 11.2486 24.315 10.9375 25.0257 10.9375C25.7364 10.9375 26.3725 11.2486 26.8383 11.7143C27.3035 12.1796 27.4857 12.8162 27.4857 13.5269C27.4857 15.0647 28.2293 16.4687 29.2983 17.4111C30.2051 18.2124 31.3594 18.7058 32.6645 18.7058ZM32.6645 26.3431C33.3752 26.3431 34.0113 26.5247 34.4771 26.9904C34.9423 27.4557 35.2539 28.2218 35.2539 28.9325C35.2539 29.6432 34.9423 30.2793 34.4771 30.7451C34.0113 31.2108 33.3752 31.3924 32.6645 31.3924C31.243 31.3924 29.9703 32.0146 29.0393 32.9461C28.1078 33.8776 27.4856 35.1503 27.4856 36.5713C27.4856 37.282 27.3035 37.9181 26.8383 38.3839C26.3725 38.8496 25.7364 39.1607 25.0257 39.1607C23.6047 39.1607 22.4362 37.9922 22.4362 36.5713C22.4362 35.1503 21.8141 33.8776 20.8826 32.9461C20.8582 32.9217 20.8312 32.8937 20.8032 32.8645C20.7434 32.8024 20.6786 32.7351 20.6237 32.6871C19.7168 31.8858 18.5625 31.3924 17.2574 31.3924C15.8365 31.3924 14.668 30.3539 14.668 28.9325C14.668 28.2218 14.979 27.4557 15.4448 26.9904C15.9106 26.5247 16.5467 26.3431 17.2574 26.3431C17.9681 26.3431 18.6042 26.5247 19.07 26.9904C19.5352 27.4557 19.8468 28.2218 19.8468 28.9325C19.8468 30.2371 20.3402 31.3914 21.1415 32.2987C22.0839 33.3677 23.4884 33.9819 25.0257 33.9819C26.4471 33.9819 27.7199 33.4892 28.6509 32.5577C29.5824 31.6262 30.0751 30.3534 30.0751 28.9325C30.0751 27.5115 29.5824 26.1093 28.6509 25.1778C28.6114 25.1383 28.565 25.1239 28.5182 25.1094C28.4747 25.0959 28.4309 25.0823 28.3919 25.0483C27.4851 24.247 26.3308 23.7536 25.0257 23.7536C23.6047 23.7536 22.4362 22.5857 22.4362 21.1642C22.4362 20.4535 22.6178 19.8168 23.0836 19.3516C23.5494 18.8858 24.3149 18.5748 25.0257 18.5748C25.7364 18.5748 26.3725 18.8858 26.8383 19.3516C27.3035 19.8168 27.4856 20.4535 27.4856 21.1642C27.4856 22.4688 27.979 23.6231 28.7803 24.5305C29.7227 25.5994 31.1272 26.3431 32.6645 26.3431Z" fill="#FEDA2C"/>
</g>
<defs>
<clipPath id="clip0_1193_20860">
<rect width="50" height="50" fill="white"/>
</clipPath>
</defs>
</svg>
