<svg width="26" height="26" viewBox="0 0 26 26" fill="none" xmlns="http://www.w3.org/2000/svg">
<path d="M13 2.80557C13.9773 1.69834 15.4071 1 17 1C19.9455 1 22.3333 3.38781 22.3333 6.33333C22.3333 9.27885 19.9455 11.6667 17 11.6667C15.4071 11.6667 13.9773 10.9683 13 9.8611M17 25H1V23.6667C1 19.2484 4.58172 15.6667 9 15.6667C13.4183 15.6667 17 19.2484 17 23.6667V25ZM17 25H25V23.6667C25 19.2484 21.4183 15.6667 17 15.6667C15.5429 15.6667 14.1767 16.0562 13 16.7369M14.3333 6.33333C14.3333 9.27885 11.9455 11.6667 9 11.6667C6.05448 11.6667 3.66667 9.27885 3.66667 6.33333C3.66667 3.38781 6.05448 1 9 1C11.9455 1 14.3333 3.38781 14.3333 6.33333Z" stroke="#111827" stroke-width="2" stroke-linecap="round" stroke-linejoin="round"/>
</svg>
