<svg width="26" height="26" viewBox="0 0 26 26" fill="none" xmlns="http://www.w3.org/2000/svg">
<path d="M9 20V21.3427C9.00006 21.8681 8.89659 22.3885 8.69549 22.8739C8.4944 23.3594 8.19962 23.8005 7.828 24.172L7 25H19L18.172 24.172C17.8004 23.8005 17.5056 23.3594 17.3045 22.8739C17.1034 22.3885 16.9999 21.8681 17 21.3427V20M25 4V17C25 17.7956 24.6839 18.5587 24.1213 19.1213C23.5587 19.6839 22.7957 20 22 20H4C3.20435 20 2.44129 19.6839 1.87868 19.1213C1.31607 18.5587 1 17.7956 1 17V4M25 4C25 3.20435 24.6839 2.44129 24.1213 1.87868C23.5587 1.31607 22.7957 1 22 1H4C3.20435 1 2.44129 1.31607 1.87868 1.87868C1.31607 2.44129 1 3.20435 1 4M25 4V13C25 13.7956 24.6839 14.5587 24.1213 15.1213C23.5587 15.6839 22.7957 16 22 16H4C3.20435 16 2.44129 15.6839 1.87868 15.1213C1.31607 14.5587 1 13.7956 1 13V4" stroke="black" stroke-width="1.5" stroke-linecap="round" stroke-linejoin="round"/>
</svg>
