<svg width="27" height="21" viewBox="0 0 27 21" fill="none" xmlns="http://www.w3.org/2000/svg">
<path d="M17.125 6.875H21.6563M17.125 10.5H21.6563M17.125 14.125H21.6563M4.4375 19.5625H22.5625C23.2836 19.5625 23.9751 19.2761 24.4849 18.7662C24.9948 18.2563 25.2813 17.5648 25.2813 16.8438V4.15625C25.2813 3.43519 24.9948 2.74367 24.4849 2.2338C23.9751 1.72394 23.2836 1.4375 22.5625 1.4375H4.4375C3.71644 1.4375 3.02492 1.72394 2.51505 2.2338C2.00519 2.74367 1.71875 3.43519 1.71875 4.15625V16.8438C1.71875 17.5648 2.00519 18.2563 2.51505 18.7662C3.02492 19.2761 3.71644 19.5625 4.4375 19.5625ZM11.6875 7.32813C11.6875 7.62565 11.6289 7.92026 11.515 8.19514C11.4012 8.47002 11.2343 8.71978 11.0239 8.93016C10.8135 9.14055 10.5638 9.30743 10.2889 9.42129C10.014 9.53515 9.7194 9.59375 9.42188 9.59375C9.12435 9.59375 8.82974 9.53515 8.55486 9.42129C8.27998 9.30743 8.03022 9.14055 7.81984 8.93016C7.60945 8.71978 7.44257 8.47002 7.32871 8.19514C7.21485 7.92026 7.15625 7.62565 7.15625 7.32813C7.15625 6.72724 7.39495 6.15097 7.81984 5.72609C8.24472 5.3012 8.82099 5.0625 9.42188 5.0625C10.0228 5.0625 10.599 5.3012 11.0239 5.72609C11.4488 6.15097 11.6875 6.72724 11.6875 7.32813ZM13.2511 14.9841C12.0721 15.6121 10.7564 15.9396 9.42067 15.9375C8.0857 15.9392 6.77091 15.6117 5.59267 14.9841C5.8806 14.2002 6.40218 13.5236 7.08697 13.0456C7.77176 12.5676 8.58676 12.3113 9.42188 12.3113C10.257 12.3113 11.072 12.5676 11.7568 13.0456C12.4416 13.5236 12.9632 14.2002 13.2511 14.9841Z" stroke="black" stroke-width="1.8125" stroke-linecap="round" stroke-linejoin="round"/>
</svg>
