<svg width="141" height="140" viewBox="0 0 141 140" fill="none" xmlns="http://www.w3.org/2000/svg">
<path fill-rule="evenodd" clip-rule="evenodd" d="M121.95 75.444C121.902 88.8425 120.207 103.127 109.907 111.704C99.3992 120.455 84.9806 118.73 71.351 117.581C53.2043 116.052 29.1833 120.571 21.1717 104.227C13.1553 87.8721 32.725 72.4155 41.3485 56.3723C49.1423 41.8727 51.7958 21.6239 67.7554 17.5625C83.8859 13.4577 98.7925 26.7132 110.166 38.86C119.38 48.7015 121.997 61.9657 121.95 75.444Z" fill="url(#paint0_linear_1028_14260)" fill-opacity="0.2"/>
<path fill-rule="evenodd" clip-rule="evenodd" d="M65.4357 1.07184C92.9675 0.245812 113.178 23.8409 121.882 49.8711C130.828 76.6253 129.695 108.263 106.844 124.91C83.8225 141.681 51.9434 134.891 29.8682 116.902C11.2797 101.754 11.5426 75.8472 18.5671 52.9709C26.1211 28.3705 39.6206 1.84637 65.4357 1.07184Z" fill="url(#paint1_linear_1028_14260)" fill-opacity="0.2"/>
<path fill-rule="evenodd" clip-rule="evenodd" d="M79.2026 0.0383172C106.255 1.14583 118.386 31.4748 124.572 57.8414C129.063 76.9825 119.462 94.6393 104.348 107.208C84.1552 124.001 59.1533 144.806 37.0478 130.627C12.6281 114.964 11.8423 81.205 20.7563 53.5911C29.7317 25.7865 50.0179 -1.15651 79.2026 0.0383172Z" fill="url(#paint2_linear_1028_14260)" fill-opacity="0.2"/>
<path fill-rule="evenodd" clip-rule="evenodd" d="M78.3517 1.84911C106.015 3.34353 120.206 31.3382 128.408 57.6788C136.148 82.5363 138.85 112.485 117.461 127.45C96.691 141.982 71.0478 126.862 50.2632 112.351C27.7996 96.6686 1.49109 77.6635 8.22139 51.1861C15.9844 20.646 46.7504 0.141951 78.3517 1.84911Z" fill="url(#paint3_linear_1028_14260)" fill-opacity="0.2"/>
<path fill-rule="evenodd" clip-rule="evenodd" d="M79.5675 9.9853C101.639 11.1517 119.982 25.3767 127.318 46.1611C135.311 68.8081 133.71 95.1175 114.91 110.122C93.3323 127.344 62.8657 131.411 40.1174 115.758C15.7037 98.9576 2.86005 67.8494 13.1985 40.1305C22.5654 15.0162 52.7275 8.56694 79.5675 9.9853Z" fill="url(#paint4_linear_1028_14260)" fill-opacity="0.2"/>
<path fill-rule="evenodd" clip-rule="evenodd" d="M57.6686 16.2707C85.9275 14.3683 120.197 16.4919 129.656 43.1629C139.549 71.0619 117.864 99.1418 92.4548 114.362C72.9869 126.024 50.1926 115.375 32.2138 101.531C16.1881 89.1917 4.62976 70.5611 10.4128 51.1907C16.604 30.4534 36.0564 17.7257 57.6686 16.2707Z" fill="url(#paint5_linear_1028_14260)" fill-opacity="0.1"/>
<path fill-rule="evenodd" clip-rule="evenodd" d="M72.9119 15.7619C95.1587 15.9346 120.656 18.5555 128.472 39.4655C137.111 62.5786 124.847 87.357 105.247 102.266C84.1682 118.298 55.7139 126.51 34.0506 111.283C11.4166 95.3744 4.1963 64.2605 14.6432 38.5819C23.3581 17.1605 49.863 15.583 72.9119 15.7619Z" fill="url(#paint6_linear_1028_14260)" fill-opacity="0.1"/>
<circle cx="70.5" cy="67.5527" r="38.5" fill="#18181B"/>
<path fill-rule="evenodd" clip-rule="evenodd" d="M84.5798 56.0375C85.8641 56.0375 87.0136 56.3657 87.8553 57.2073C88.696 58.048 89.259 59.4324 89.259 60.7167C89.259 62.001 88.696 63.1505 87.8553 63.9921C87.0136 64.8338 85.8641 65.1619 84.5798 65.1619C82.0121 65.1619 79.9007 63.2853 79.9007 60.7167C79.9007 58.3592 79.0091 56.0394 77.5611 54.3998C77.499 54.3292 77.4745 54.2497 77.4501 54.1709C77.4241 54.0866 77.3982 54.003 77.3271 53.9319C75.6448 52.2486 73.3449 51.3584 70.7763 51.3584C68.2076 51.3584 65.6738 52.2486 63.9915 53.9319C62.3082 55.6152 61.4179 58.149 61.4179 60.7167C61.4179 63.4955 62.5278 65.7987 64.4594 67.5015C66.098 68.9495 68.4178 69.8411 70.7763 69.8411C72.0606 69.8411 73.2101 70.4032 74.0517 71.2448C74.8924 72.0856 75.2215 73.236 75.2215 74.5203C75.2215 75.8046 74.8924 76.9541 74.0517 77.7957C73.2101 78.6373 72.0606 79.1994 70.7763 79.1994C68.2086 79.1994 66.0971 77.0889 66.0971 74.5203C66.0971 72.1628 65.2055 70.0769 63.7575 68.4373C63.6702 68.338 63.5488 68.221 63.4368 68.113C63.3842 68.0622 63.3336 68.0134 63.2896 67.9694C61.6072 66.2861 59.3064 65.1619 56.7387 65.1619C54.1711 65.1619 52.0596 63.2853 52.0596 60.7167C52.0596 59.4324 52.6217 58.048 53.4633 57.2073C54.305 56.3657 55.4554 56.0375 56.7387 56.0375C59.3074 56.0375 61.6072 54.9133 63.2896 53.23C64.9729 51.5467 66.0971 49.2469 66.0971 46.6792C66.0971 45.3949 66.4253 44.2445 67.2669 43.4038C68.1085 42.5621 69.492 42 70.7763 42C72.0606 42 73.2101 42.5621 74.0517 43.4038C74.8924 44.2445 75.2215 45.3949 75.2215 46.6792C75.2215 49.458 76.5653 51.9951 78.4969 53.6979C80.1355 55.1459 82.2214 56.0375 84.5798 56.0375ZM84.5798 69.8383C85.8641 69.8383 87.0136 70.1665 87.8553 71.0081C88.696 71.8488 89.259 73.2332 89.259 74.5175C89.259 75.8018 88.696 76.9513 87.8553 77.7929C87.0136 78.6345 85.8641 78.9627 84.5798 78.9627C82.0112 78.9627 79.7113 80.0869 78.029 81.7702C76.3457 83.4535 75.2215 85.7534 75.2215 88.321C75.2215 89.6054 74.8924 90.7548 74.0517 91.5965C73.2101 92.4381 72.0606 93.0002 70.7763 93.0002C68.2086 93.0002 66.0971 90.8887 66.0971 88.321C66.0971 85.7534 64.9729 83.4535 63.2896 81.7702C63.2456 81.7262 63.1968 81.6755 63.146 81.6227C63.038 81.5105 62.921 81.389 62.8217 81.3023C61.183 79.8543 59.0972 78.9627 56.7387 78.9627C54.1711 78.9627 52.0596 77.0861 52.0596 74.5175C52.0596 73.2332 52.6217 71.8488 53.4633 71.0081C54.305 70.1665 55.4544 69.8383 56.7387 69.8383C58.0231 69.8383 59.1725 70.1665 60.0142 71.0081C60.8549 71.8488 61.4179 73.2332 61.4179 74.5175C61.4179 76.875 62.3095 78.9608 63.7575 80.6004C65.4603 82.532 67.9984 83.6419 70.7763 83.6419C73.3449 83.6419 75.6448 82.7516 77.3271 81.0683C79.0104 79.3851 79.9007 77.0852 79.9007 74.5175C79.9007 71.9498 79.0104 69.416 77.3271 67.7327C77.2558 67.6614 77.172 67.6353 77.0874 67.6091C77.0088 67.5847 76.9296 67.5601 76.8592 67.4987C75.2206 66.0507 73.1347 65.1591 70.7763 65.1591C68.2086 65.1591 66.0971 63.0486 66.0971 60.48C66.0971 59.1956 66.4253 58.0452 67.2669 57.2045C68.1085 56.3629 69.492 55.8008 70.7763 55.8008C72.0606 55.8008 73.2101 56.3629 74.0517 57.2045C74.8924 58.0452 75.2215 59.1956 75.2215 60.48C75.2215 62.8375 76.1131 64.9233 77.5611 66.5629C79.2639 68.4945 81.802 69.8383 84.5798 69.8383Z" fill="#E8FD94"/>
<defs>
<linearGradient id="paint0_linear_1028_14260" x1="28.2579" y1="16.8008" x2="33.1584" y2="119.974" gradientUnits="userSpaceOnUse">
<stop stop-color="#FCBBFF"/>
<stop offset="0.336458" stop-color="#82CCE3"/>
<stop offset="0.690625" stop-color="#77EB90"/>
<stop offset="1" stop-color="#F6FD69"/>
</linearGradient>
<linearGradient id="paint1_linear_1028_14260" x1="14.1504" y1="122.851" x2="128.752" y2="118.203" gradientUnits="userSpaceOnUse">
<stop stop-color="#FCBBFF"/>
<stop offset="0.336458" stop-color="#82CCE3"/>
<stop offset="0.690625" stop-color="#77EB90"/>
<stop offset="1" stop-color="#F6FD69"/>
</linearGradient>
<linearGradient id="paint2_linear_1028_14260" x1="15.5498" y1="123.503" x2="127.323" y2="119.143" gradientUnits="userSpaceOnUse">
<stop stop-color="#FCBBFF"/>
<stop offset="0.336458" stop-color="#82CCE3"/>
<stop offset="0.690625" stop-color="#77EB90"/>
<stop offset="1" stop-color="#F6FD69"/>
</linearGradient>
<linearGradient id="paint3_linear_1028_14260" x1="7.15039" y1="121.846" x2="135.895" y2="115.894" gradientUnits="userSpaceOnUse">
<stop stop-color="#FCBBFF"/>
<stop offset="0.336458" stop-color="#82CCE3"/>
<stop offset="0.690625" stop-color="#77EB90"/>
<stop offset="1" stop-color="#F6FD69"/>
</linearGradient>
<linearGradient id="paint4_linear_1028_14260" x1="9.59961" y1="115.418" x2="133.558" y2="109.14" gradientUnits="userSpaceOnUse">
<stop stop-color="#FCBBFF"/>
<stop offset="0.336458" stop-color="#82CCE3"/>
<stop offset="0.690625" stop-color="#77EB90"/>
<stop offset="1" stop-color="#F6FD69"/>
</linearGradient>
<linearGradient id="paint5_linear_1028_14260" x1="8.90039" y1="110.294" x2="133.72" y2="103.179" gradientUnits="userSpaceOnUse">
<stop stop-color="#FCBBFF"/>
<stop offset="0.336458" stop-color="#82CCE3"/>
<stop offset="0.690625" stop-color="#77EB90"/>
<stop offset="1" stop-color="#F6FD69"/>
</linearGradient>
<linearGradient id="paint6_linear_1028_14260" x1="9.95019" y1="110.294" x2="132.89" y2="103.392" gradientUnits="userSpaceOnUse">
<stop stop-color="#FCBBFF"/>
<stop offset="0.336458" stop-color="#82CCE3"/>
<stop offset="0.690625" stop-color="#77EB90"/>
<stop offset="1" stop-color="#F6FD69"/>
</linearGradient>
</defs>
</svg>
