<svg width="173" height="45" viewBox="0 0 173 45" fill="none" xmlns="http://www.w3.org/2000/svg">
<path d="M40.8071 28.2186C40.8071 30.5014 42.5989 31.9986 45.4217 31.9986C48.2689 31.9986 50.2326 30.5505 50.2326 28.2677C50.2326 26.4759 49.2262 25.5432 47.1889 25.0523L45.078 24.5368C43.8999 24.2423 43.3108 23.7023 43.3108 22.8923C43.3108 21.7877 44.1208 21.1496 45.5689 21.1496C46.968 21.1496 47.778 21.9105 47.8271 23.1132H50.0362C49.9871 20.8305 48.2689 19.3578 45.6426 19.3578C42.9917 19.3578 41.1262 20.7568 41.1262 22.9659C41.1262 24.7332 42.1326 25.7886 44.268 26.3041L46.3789 26.795C47.6308 27.1141 48.0235 27.605 48.0235 28.415C48.0235 29.5196 47.0908 30.1823 45.4708 30.1823C43.9489 30.1823 43.0162 29.4459 43.0162 28.2186H40.8071Z" fill="white"/>
<path d="M52.7912 37.0795H55.0985V29.7405C55.884 31.2132 57.4794 32.0232 59.3939 32.0232C62.953 32.0232 64.9658 29.2741 64.9658 25.6168C64.9658 21.935 62.8303 19.3578 59.3939 19.3578C57.4794 19.3578 55.8594 20.2168 55.0494 21.8614L54.8776 19.7014H52.7912V37.0795ZM55.123 25.715C55.123 23.2114 56.5467 21.4687 58.903 21.4687C61.2594 21.4687 62.6585 23.2359 62.6585 25.715C62.6585 28.1696 61.2594 29.9368 58.903 29.9368C56.5467 29.9368 55.123 28.1696 55.123 25.715Z" fill="white"/>
<path d="M71.0189 31.9986C72.958 31.9986 74.6025 31.1395 75.2161 29.765L75.4616 31.7041H77.4252V24.1687C77.4252 20.9287 75.4125 19.3578 72.4425 19.3578C69.3498 19.3578 67.288 21.0023 67.288 23.5059H69.3007C69.3007 22.0577 70.4052 21.1987 72.3443 21.1987C73.9643 21.1987 75.167 21.9105 75.167 23.9232V24.2668L71.3871 24.5614C68.5643 24.7823 66.9198 26.1568 66.9198 28.3659C66.9198 30.5505 68.4416 31.9986 71.0189 31.9986ZM71.6816 30.2068C70.1843 30.2068 69.2516 29.5686 69.2516 28.2923C69.2516 27.1141 70.0862 26.3286 72.1234 26.1323L75.1916 25.8868V26.525C75.1916 28.7832 73.8661 30.2068 71.6816 30.2068Z" fill="white"/>
<path d="M87.4933 19.6032C87.0269 19.505 86.6833 19.4559 86.266 19.4559C84.6214 19.4559 83.4187 20.2905 82.9278 21.5423L82.7805 19.7259H80.6205V31.7041H82.9278V25.3468C82.9278 23.0396 84.2778 21.7141 86.4624 21.7141H87.4933V19.6032Z" fill="white"/>
<path d="M92.0136 31.7041V28.2923L94.0509 26.1568L97.5609 31.7041H100.212L95.6464 24.4877L100.236 19.7014H97.34L92.0136 25.3468V13.6387H89.7064V31.7041H92.0136Z" fill="white"/>
<path d="M102.122 37.0795H104.429V29.7405C105.214 31.2132 106.81 32.0232 108.724 32.0232C112.284 32.0232 114.296 29.2741 114.296 25.6168C114.296 21.935 112.161 19.3578 108.724 19.3578C106.81 19.3578 105.19 20.2168 104.38 21.8614L104.208 19.7014H102.122V37.0795ZM104.454 25.715C104.454 23.2114 105.877 21.4687 108.234 21.4687C110.59 21.4687 111.989 23.2359 111.989 25.715C111.989 28.1696 110.59 29.9368 108.234 29.9368C105.877 29.9368 104.454 28.1696 104.454 25.715Z" fill="white"/>
<path d="M119.196 31.7041V13.6387H116.888V31.7041H119.196Z" fill="white"/>
<path d="M126.102 31.9986C128.041 31.9986 129.686 31.1395 130.299 29.765L130.545 31.7041H132.509V24.1687C132.509 20.9287 130.496 19.3578 127.526 19.3578C124.433 19.3578 122.371 21.0023 122.371 23.5059H124.384C124.384 22.0577 125.489 21.1987 127.428 21.1987C129.048 21.1987 130.25 21.9105 130.25 23.9232V24.2668L126.47 24.5614C123.648 24.7823 122.003 26.1568 122.003 28.3659C122.003 30.5505 123.525 31.9986 126.102 31.9986ZM126.765 30.2068C125.268 30.2068 124.335 29.5686 124.335 28.2923C124.335 27.1141 125.169 26.3286 127.207 26.1323L130.275 25.8868V26.525C130.275 28.7832 128.949 30.2068 126.765 30.2068Z" fill="white"/>
<path d="M138.011 31.7041V25.3468C138.011 23.015 139.263 21.4687 141.423 21.4687C143.19 21.4687 144.319 22.4505 144.319 24.8805V31.7041H146.627V24.365C146.627 21.2968 145.178 19.3578 142.012 19.3578C140.318 19.3578 138.797 20.1678 138.036 21.5423L137.79 19.7014H135.704V31.7041H138.011Z" fill="white"/>
<path d="M151.54 31.9986C152.473 31.9986 153.283 31.2132 153.283 30.2805C153.283 29.3232 152.473 28.5377 151.54 28.5377C150.583 28.5377 149.773 29.3232 149.773 30.2805C149.773 31.2132 150.583 31.9986 151.54 31.9986Z" fill="white"/>
<path d="M159.876 31.9986C161.815 31.9986 163.46 31.1395 164.073 29.765L164.319 31.7041H166.282V24.1687C166.282 20.9287 164.27 19.3578 161.3 19.3578C158.207 19.3578 156.145 21.0023 156.145 23.5059H158.158C158.158 22.0577 159.262 21.1987 161.202 21.1987C162.822 21.1987 164.024 21.9105 164.024 23.9232V24.2668L160.244 24.5614C157.422 24.7823 155.777 26.1568 155.777 28.3659C155.777 30.5505 157.299 31.9986 159.876 31.9986ZM160.539 30.2068C159.042 30.2068 158.109 29.5686 158.109 28.2923C158.109 27.1141 158.943 26.3286 160.981 26.1323L164.049 25.8868V26.525C164.049 28.7832 162.723 30.2068 160.539 30.2068Z" fill="white"/>
<path d="M170.607 16.8541C171.441 16.8541 172.129 16.1668 172.129 15.3323C172.129 14.4732 171.441 13.8105 170.607 13.8105C169.772 13.8105 169.085 14.4732 169.085 15.3323C169.085 16.1668 169.772 16.8541 170.607 16.8541ZM169.478 31.7041H171.785V19.7014H169.478V31.7041Z" fill="white"/>
<path fill-rule="evenodd" clip-rule="evenodd" d="M28.6363 12.2727C29.7662 12.2727 30.7889 12.7309 31.5294 13.4713C32.269 14.211 32.7272 15.2337 32.7272 16.3636C32.7272 17.4935 32.269 18.5162 31.5294 19.2567C30.7889 19.9971 29.7662 20.4545 28.6363 20.4545C26.3773 20.4545 24.5454 18.6234 24.5454 16.3636C24.5454 14.2895 23.7739 12.3954 22.5 10.953C22.387 10.8245 22.27 10.6993 22.149 10.5783C20.6689 9.09734 18.6234 8.1818 16.3636 8.1818C14.1038 8.1818 12.0583 9.09734 10.5783 10.5783C9.09734 12.0592 8.1818 14.1046 8.1818 16.3636C8.1818 18.8083 9.25362 21.0019 10.953 22.5C12.3946 23.7739 14.2887 24.5454 16.3636 24.5454C17.4935 24.5454 18.5162 25.0036 19.2567 25.744C19.9963 26.4837 20.4545 27.5064 20.4545 28.6363C20.4545 29.7662 19.9963 30.7889 19.2567 31.5294C18.5162 32.2698 17.4935 32.7272 16.3636 32.7272C14.1046 32.7272 12.2727 30.8961 12.2727 28.6363C12.2727 26.5622 11.5012 24.6681 10.2273 23.2257C10.1143 23.0972 9.99734 22.972 9.87625 22.851C8.39616 21.37 6.3499 20.4545 4.0909 20.4545C1.83191 20.4545 0 18.6234 0 16.3636C0 15.2337 0.458181 14.211 1.19863 13.4713C1.93909 12.7309 2.96181 12.2727 4.0909 12.2727C6.35071 12.2727 8.39616 11.3572 9.87625 9.87625C11.3572 8.39535 12.2727 6.3499 12.2727 4.0909C12.2727 2.96099 12.7309 1.93827 13.4713 1.19863C14.2118 0.458181 15.2337 0 16.3636 0C17.4935 0 18.5162 0.458181 19.2567 1.19863C19.9963 1.93827 20.4545 2.96099 20.4545 4.0909C20.4545 6.53562 21.5263 8.72916 23.2257 10.2273C24.6673 11.5012 26.5614 12.2727 28.6363 12.2727ZM28.6363 24.5455C29.7662 24.5455 30.7889 25.0037 31.5294 25.7441C32.269 26.4838 32.7272 27.5065 32.7272 28.6364C32.7272 29.7663 32.269 30.789 31.5294 31.5295C30.7889 32.2699 29.7662 32.7273 28.6363 32.7273C26.3765 32.7273 24.331 33.6428 22.851 35.1237C21.37 36.6046 20.4545 38.6501 20.4545 40.9091C20.4545 42.039 19.9963 43.0617 19.2567 43.8022C18.5162 44.5426 17.4935 45 16.3636 45C14.1046 45 12.2727 43.1681 12.2727 40.9091C12.2727 38.6501 11.3572 36.6046 9.87625 35.1237C9.75516 35.0027 9.62998 34.8848 9.50153 34.7727C8.05989 33.4988 6.16581 32.7273 4.0909 32.7273C1.83191 32.7273 0 30.8962 0 28.6364C0 27.5065 0.458181 26.4838 1.19863 25.7441C1.93909 25.0037 2.96099 24.5455 4.0909 24.5455C5.22081 24.5455 6.24353 25.0037 6.98399 25.7441C7.72362 26.4838 8.1818 27.5065 8.1818 28.6364C8.1818 30.7105 8.95335 32.6046 10.2273 34.047C11.7253 35.7464 13.9197 36.8182 16.3636 36.8182C18.6234 36.8182 20.6689 35.9026 22.149 34.4217C23.6299 32.9408 24.5454 30.8954 24.5454 28.6364C24.5454 26.3774 23.6299 24.3319 22.149 22.851C22.0279 22.73 21.9027 22.6121 21.7742 22.5C20.3326 21.2261 18.4385 20.4546 16.3636 20.4546C14.1046 20.4546 12.2727 18.6235 12.2727 16.3637C12.2727 15.2338 12.7309 14.2111 13.4713 13.4714C14.2118 12.731 15.2337 12.2728 16.3636 12.2728C17.4935 12.2728 18.5162 12.731 19.2567 13.4714C19.9963 14.2111 20.4545 15.2338 20.4545 16.3637C20.4545 18.4378 21.226 20.3319 22.5 21.7743C23.998 23.4737 26.1924 24.5455 28.6363 24.5455Z" fill="white"/>
</svg>
