<svg width="18" height="24" viewBox="0 0 18 24" fill="none" xmlns="http://www.w3.org/2000/svg">
<path fill-rule="evenodd" clip-rule="evenodd" d="M14.9579 6.50482C15.5326 6.50482 16.0529 6.7379 16.4296 7.11456C16.8058 7.49081 17.0389 8.01107 17.0389 8.58586C17.0389 9.16064 16.8058 9.6809 16.4296 10.0576C16.0529 10.4342 15.5326 10.6669 14.9579 10.6669C13.8087 10.6669 12.8768 9.73542 12.8768 8.58586C12.8768 7.53077 12.4843 6.56725 11.8363 5.83348C11.7789 5.76814 11.7194 5.70446 11.6578 5.64286C10.9048 4.88952 9.86432 4.42379 8.71476 4.42379C7.5652 4.42379 6.52468 4.88952 5.77176 5.64286C5.01843 6.39619 4.55269 7.43671 4.55269 8.58586C4.55269 9.82948 5.09792 10.9453 5.96239 11.7074C6.69574 12.3554 7.65926 12.7479 8.71476 12.7479C9.28954 12.7479 9.8098 12.981 10.1865 13.3577C10.5627 13.7339 10.7958 14.2542 10.7958 14.829C10.7958 15.4037 10.5627 15.924 10.1865 16.3007C9.8098 16.6773 9.28954 16.91 8.71476 16.91C7.56561 16.91 6.63373 15.9785 6.63373 14.829C6.63373 13.7739 6.24124 12.8104 5.59321 12.0766C5.53577 12.0112 5.47626 11.9476 5.41466 11.886C4.66174 11.1326 3.62081 10.6669 2.47166 10.6669C1.32251 10.6669 0.390625 9.73542 0.390625 8.58586C0.390625 8.01107 0.623701 7.49081 1.00037 7.11456C1.37704 6.7379 1.89729 6.50482 2.47166 6.50482C3.62122 6.50482 4.66174 6.03909 5.41466 5.28575C6.16799 4.53242 6.63373 3.4919 6.63373 2.34275C6.63373 1.76797 6.8668 1.24771 7.24347 0.871462C7.62014 0.494795 8.13998 0.261719 8.71476 0.261719C9.28954 0.261719 9.8098 0.494795 10.1865 0.871462C10.5627 1.24771 10.7958 1.76797 10.7958 2.34275C10.7958 3.58638 11.341 4.70223 12.2055 5.4643C12.9388 6.11234 13.9024 6.50482 14.9579 6.50482ZM14.9579 12.7483C15.5326 12.7483 16.0529 12.9814 16.4296 13.358C16.8058 13.7343 17.0389 14.2545 17.0389 14.8293C17.0389 15.4041 16.8058 15.9244 16.4296 16.301C16.0529 16.6777 15.5326 16.9104 14.9579 16.9104C13.8083 16.9104 12.7678 17.3761 12.0149 18.1294C11.2615 18.8828 10.7958 19.9233 10.7958 21.0724C10.7958 21.6472 10.5627 22.1675 10.1865 22.5441C9.8098 22.9208 9.28954 23.1535 8.71476 23.1535C7.56561 23.1535 6.63373 22.2216 6.63373 21.0724C6.63373 19.9233 6.16799 18.8828 5.41466 18.1294C5.35306 18.0678 5.28938 18.0079 5.22403 17.9509C4.49068 17.3028 3.52716 16.9104 2.47166 16.9104C1.32251 16.9104 0.390625 15.9789 0.390625 14.8293C0.390625 14.2545 0.623701 13.7343 1.00037 13.358C1.37704 12.9814 1.89688 12.7483 2.47166 12.7483C3.04644 12.7483 3.5667 12.9814 3.94337 13.358C4.31962 13.7343 4.55269 14.2545 4.55269 14.8293C4.55269 15.8844 4.94518 16.8479 5.59321 17.5817C6.35529 18.4462 7.47155 18.9914 8.71476 18.9914C9.86432 18.9914 10.9048 18.5257 11.6578 17.7723C12.4111 17.019 12.8768 15.9785 12.8768 14.8293C12.8768 13.6802 12.4111 12.6397 11.6578 11.8863C11.5962 11.8247 11.5325 11.7648 11.4671 11.7078C10.7338 11.0597 9.77026 10.6673 8.71476 10.6673C7.56561 10.6673 6.63373 9.73579 6.63373 8.58623C6.63373 8.01145 6.8668 7.49119 7.24347 7.11494C7.62014 6.73827 8.13998 6.5052 8.71476 6.5052C9.28954 6.5052 9.8098 6.73827 10.1865 7.11494C10.5627 7.49119 10.7958 8.01145 10.7958 8.58623C10.7958 9.64131 11.1883 10.6048 11.8363 11.3386C12.5984 12.2031 13.7147 12.7483 14.9579 12.7483Z" fill="#AEE317"/>
</svg>
